HIERARCHY
ROOT Hips
{
	OFFSET 0.000000 97.167313 0.000000
	CHANNELS 6 Xposition Yposition Zposition Xrotation Yrotation Zrotation
	JOINT Spine
	{
		OFFSET 0.000000 13.784798 0.064400
		CHANNELS 3 Xrotation Yrotation Zrotation
		JOINT Spine1
		{
			OFFSET 0.000000 12.037903 0.404700
			CHANNELS 3 Xrotation Yrotation Zrotation
			JOINT Spine2
			{
				OFFSET 0.000000 17.795601 0.420200
				CHANNELS 3 Xrotation Yrotation Zrotation
				JOINT Neck
				{
					OFFSET 0.000000 39.131302 11.954600
					CHANNELS 3 Xrotation Yrotation Zrotation
					JOINT Head
					{
						OFFSET 0.000000 14.456192 15.627699
						CHANNELS 3 Xrotation Yrotation Zrotation
						JOINT HeadTop_End
						{
							OFFSET 0.000000 15.703506 7.603401
							CHANNELS 3 Xrotation Yrotation Zrotation
							End Site
							{
								OFFSET 0.000000 17.447403 0.000000
							}
						}
					}
				}
				JOINT LeftShoulder
				{
					OFFSET 17.399500 24.608795 1.168800
					CHANNELS 3 Xrotation Yrotation Zrotation
					JOINT LeftArm
					{
						OFFSET 18.980635 5.765305 1.818600
						CHANNELS 3 Xrotation Yrotation Zrotation
						JOINT LeftForeArm
						{
							OFFSET 49.290169 0.000000 0.000000
							CHANNELS 3 Xrotation Yrotation Zrotation
							JOINT LeftHand
							{
								OFFSET 31.562012 0.000000 0.000000
								CHANNELS 3 Xrotation Yrotation Zrotation
								JOINT LeftHandThumb1
								{
									OFFSET 6.133995 -4.388519 7.076070
									CHANNELS 3 Xrotation Yrotation Zrotation
									JOINT LeftHandThumb2
									{
										OFFSET 6.037666 -3.485840 3.485847
										CHANNELS 3 Xrotation Yrotation Zrotation
										JOINT LeftHandThumb3
										{
											OFFSET 6.496506 -3.750763 3.750761
											CHANNELS 3 Xrotation Yrotation Zrotation
											JOINT LeftHandThumb4
											{
												OFFSET 5.616882 -3.242905 3.242910
												CHANNELS 3 Xrotation Yrotation Zrotation
												End Site
												{
													OFFSET -1.254608 7.132141 0.375429
												}
											}
										}
									}
								}
								JOINT LeftHandPinky1
								{
									OFFSET 18.920792 -0.453171 -11.426712
									CHANNELS 3 Xrotation Yrotation Zrotation
									JOINT LeftHandPinky2
									{
										OFFSET 4.919586 0.000000 0.000000
										CHANNELS 3 Xrotation Yrotation Zrotation
										JOINT LeftHandPinky3
										{
											OFFSET 5.233047 0.000000 0.000000
											CHANNELS 3 Xrotation Yrotation Zrotation
											JOINT LeftHandPinky4
											{
												OFFSET 5.571716 0.000000 0.000000
												CHANNELS 3 Xrotation Yrotation Zrotation
												End Site
												{
													OFFSET -3.459808 4.342407 -0.466164
												}
											}
										}
									}
								}
								JOINT LeftHandRing1
								{
									OFFSET 22.726120 -0.094986 -6.500475
									CHANNELS 3 Xrotation Yrotation Zrotation
									JOINT LeftHandRing2
									{
										OFFSET 6.408615 0.000000 0.000000
										CHANNELS 3 Xrotation Yrotation Zrotation
										JOINT LeftHandRing3
										{
											OFFSET 6.150223 0.000000 0.000000
											CHANNELS 3 Xrotation Yrotation Zrotation
											JOINT LeftHandRing4
											{
												OFFSET 6.145386 0.000000 0.000000
												CHANNELS 3 Xrotation Yrotation Zrotation
												End Site
												{
													OFFSET -3.671402 4.923981 -0.202372
												}
											}
										}
									}
								}
								JOINT LeftHandMiddle1
								{
									OFFSET 23.373947 0.000000 0.000001
									CHANNELS 3 Xrotation Yrotation Zrotation
									JOINT LeftHandMiddle2
									{
										OFFSET 6.996567 0.000000 0.000000
										CHANNELS 3 Xrotation Yrotation Zrotation
										JOINT LeftHandMiddle3
										{
											OFFSET 7.015945 0.000000 0.000000
											CHANNELS 3 Xrotation Yrotation Zrotation
											JOINT LeftHandMiddle4
											{
												OFFSET 7.721573 0.000000 0.000000
												CHANNELS 3 Xrotation Yrotation Zrotation
												End Site
												{
													OFFSET -4.651108 6.158463 0.251582
												}
											}
										}
									}
								}
								JOINT LeftHandIndex1
								{
									OFFSET 21.310577 -0.490082 6.209344
									CHANNELS 3 Xrotation Yrotation Zrotation
									JOINT LeftHandIndex2
									{
										OFFSET 7.536453 0.000000 0.000000
										CHANNELS 3 Xrotation Yrotation Zrotation
										JOINT LeftHandIndex3
										{
											OFFSET 7.512344 0.000000 0.000000
											CHANNELS 3 Xrotation Yrotation Zrotation
											JOINT LeftHandIndex4
											{
												OFFSET 10.212402 0.000000 0.000001
												CHANNELS 3 Xrotation Yrotation Zrotation
												End Site
												{
													OFFSET -5.180801 8.690506 1.388433
												}
											}
										}
									}
								}
							}
						}
					}
				}
				JOINT RightShoulder
				{
					OFFSET -17.399500 24.608795 1.168800
					CHANNELS 3 Xrotation Yrotation Zrotation
					JOINT RightArm
					{
						OFFSET -18.980635 5.765305 1.818600
						CHANNELS 3 Xrotation Yrotation Zrotation
						JOINT RightForeArm
						{
							OFFSET -49.290169 0.000000 0.000000
							CHANNELS 3 Xrotation Yrotation Zrotation
							JOINT RightHand
							{
								OFFSET -31.562012 0.000000 0.000000
								CHANNELS 3 Xrotation Yrotation Zrotation
								JOINT RightHandThumb1
								{
									OFFSET -6.133995 -4.388519 7.076070
									CHANNELS 3 Xrotation Yrotation Zrotation
									JOINT RightHandThumb2
									{
										OFFSET -6.037666 -3.485840 3.485847
										CHANNELS 3 Xrotation Yrotation Zrotation
										JOINT RightHandThumb3
										{
											OFFSET -6.496506 -3.750763 3.750761
											CHANNELS 3 Xrotation Yrotation Zrotation
											JOINT RightHandThumb4
											{
												OFFSET -5.616882 -3.242905 3.242910
												CHANNELS 3 Xrotation Yrotation Zrotation
												End Site
												{
													OFFSET 1.254608 7.132141 0.375429
												}
											}
										}
									}
								}
								JOINT RightHandIndex1
								{
									OFFSET -21.310577 -0.490082 6.209344
									CHANNELS 3 Xrotation Yrotation Zrotation
									JOINT RightHandIndex2
									{
										OFFSET -7.536453 0.000000 0.000000
										CHANNELS 3 Xrotation Yrotation Zrotation
										JOINT RightHandIndex3
										{
											OFFSET -7.512344 0.000000 0.000000
											CHANNELS 3 Xrotation Yrotation Zrotation
											JOINT RightHandIndex4
											{
												OFFSET -10.212402 0.000000 0.000001
												CHANNELS 3 Xrotation Yrotation Zrotation
												End Site
												{
													OFFSET 5.180801 8.690506 1.388433
												}
											}
										}
									}
								}
								JOINT RightHandMiddle1
								{
									OFFSET -23.373947 0.000000 0.000001
									CHANNELS 3 Xrotation Yrotation Zrotation
									JOINT RightHandMiddle2
									{
										OFFSET -6.996567 0.000000 0.000000
										CHANNELS 3 Xrotation Yrotation Zrotation
										JOINT RightHandMiddle3
										{
											OFFSET -7.015945 0.000000 0.000000
											CHANNELS 3 Xrotation Yrotation Zrotation
											JOINT RightHandMiddle4
											{
												OFFSET -7.721573 0.000000 0.000000
												CHANNELS 3 Xrotation Yrotation Zrotation
												End Site
												{
													OFFSET 4.651108 6.158463 0.251582
												}
											}
										}
									}
								}
								JOINT RightHandRing1
								{
									OFFSET -22.726120 -0.094986 -6.500475
									CHANNELS 3 Xrotation Yrotation Zrotation
									JOINT RightHandRing2
									{
										OFFSET -6.408615 0.000000 0.000000
										CHANNELS 3 Xrotation Yrotation Zrotation
										JOINT RightHandRing3
										{
											OFFSET -6.150223 0.000000 0.000000
											CHANNELS 3 Xrotation Yrotation Zrotation
											JOINT RightHandRing4
											{
												OFFSET -6.145386 0.000000 0.000000
												CHANNELS 3 Xrotation Yrotation Zrotation
												End Site
												{
													OFFSET 3.671402 4.923981 -0.202372
												}
											}
										}
									}
								}
								JOINT RightHandPinky1
								{
									OFFSET -18.920792 -0.453171 -11.426712
									CHANNELS 3 Xrotation Yrotation Zrotation
									JOINT RightHandPinky2
									{
										OFFSET -4.919586 0.000000 0.000000
										CHANNELS 3 Xrotation Yrotation Zrotation
										JOINT RightHandPinky3
										{
											OFFSET -5.233047 0.000000 0.000000
											CHANNELS 3 Xrotation Yrotation Zrotation
											JOINT RightHandPinky4
											{
												OFFSET -5.571716 0.000000 0.000000
												CHANNELS 3 Xrotation Yrotation Zrotation
												End Site
												{
													OFFSET 3.459808 4.342407 -0.466164
												}
											}
										}
									}
								}
							}
						}
					}
				}
			}
		}
	}
	JOINT LeftUpLeg
	{
		OFFSET 19.899099 -7.885101 -3.429500
		CHANNELS 3 Xrotation Yrotation Zrotation
		JOINT LeftLeg
		{
			OFFSET 1.745560 -36.997807 10.304700
			CHANNELS 3 Xrotation Yrotation Zrotation
			JOINT LeftFoot
			{
				OFFSET -1.745558 -29.803308 -13.615400
				CHANNELS 3 Xrotation Yrotation Zrotation
				JOINT LeftToeBase
				{
					OFFSET 1.181900 -18.539904 15.226099
					CHANNELS 3 Xrotation Yrotation Zrotation
					JOINT LeftToe_End
					{
						OFFSET -0.863701 1.402801 16.534700
						CHANNELS 3 Xrotation Yrotation Zrotation
						End Site
						{
							OFFSET 0.000000 16.616566 0.000000
						}
					}
				}
			}
		}
	}
	JOINT RightUpLeg
	{
		OFFSET -19.899099 -7.885101 -3.429500
		CHANNELS 3 Xrotation Yrotation Zrotation
		JOINT RightLeg
		{
			OFFSET -1.745560 -36.997807 10.304700
			CHANNELS 3 Xrotation Yrotation Zrotation
			JOINT RightFoot
			{
				OFFSET 1.745558 -29.803308 -13.615400
				CHANNELS 3 Xrotation Yrotation Zrotation
				JOINT RightToeBase
				{
					OFFSET -1.181900 -18.539904 15.226099
					CHANNELS 3 Xrotation Yrotation Zrotation
					JOINT RightToe_End
					{
						OFFSET 0.863701 1.402801 16.534700
						CHANNELS 3 Xrotation Yrotation Zrotation
						End Site
						{
							OFFSET 0.000000 16.616566 0.000000
						}
					}
				}
			}
		}
	}
}
MOTION
Frames: 4
Frame Time: 0.033333
-11.883659 71.851952 40.773926 161.049864 52.298560 -159.639088 23.910824 -9.137644 -5.787554 5.058982 -2.047436 -2.743795 5.105920 -1.927711 -2.691747 0.911218 6.541904 -3.535741 -39.952802 44.862120 8.874196 0.000000 0.000001 -0.000000 3.836791 -15.648443 -8.657371 -13.391451 38.024210 -61.465221 0.000073 -101.008669 0.000083 -133.072439 3.751766 -3.662662 30.519765 -19.290047 25.645960 -27.513208 19.080606 -8.263436 0.934337 -15.972290 15.282157 0.000001 0.000002 -0.000002 8.499519 9.076836 -75.220928 2.845005 5.022116 -59.041241 1.027245 3.315403 -34.422412 -0.000003 -0.000002 -0.000001 5.443935 8.473650 -67.726161 3.830167 5.492123 -69.762015 0.976113 3.239616 -33.527838 -0.000004 -0.000003 0.000003 1.391919 6.377860 -56.383095 3.162857 5.198881 -62.608335 1.181617 3.529716 -37.007707 0.000002 -0.000000 0.000001 -2.673509 2.260813 -46.508746 3.329594 5.281585 -64.433833 0.586230 2.556344 -25.828196 0.000004 0.000001 0.000001 0.474560 27.332105 8.997832 1.570572 34.667588 25.696452 -0.000135 109.425819 0.000165 -17.081922 -17.768865 18.671529 61.632205 28.897776 -13.280811 0.330318 -35.814811 7.397275 -15.909650 -47.311388 -52.518725 0.000001 -0.000001 0.000001 -0.575499 -0.947570 17.139361 0.321394 -1.701661 21.388394 0.689174 -2.440032 31.540068 0.000001 -0.000005 -0.000000 0.670087 -5.101770 53.857732 5.248139 -4.619598 97.298073 1.778669 -3.662610 51.793249 -0.000000 0.000001 -0.000006 7.412611 -8.470660 67.075470 3.825502 -4.582458 79.701819 2.852045 -4.293807 67.171960 0.000002 0.000002 -0.000001 7.484581 -8.452999 67.591791 1.968034 -3.803740 54.700936 3.471989 -4.504160 75.241302 -0.000000 -0.000000 0.000002 -64.219494 16.958279 28.827544 58.885445 -7.932958 -1.892824 1.148657 20.904081 -5.536071 -7.007649 -0.000003 -0.000003 -0.000000 0.000001 0.000000 -49.949341 -16.435865 -17.585318 70.673559 -4.832720 -7.547099 -35.514036 -5.654530 8.290029 -1.254448 0.000011 -0.000003 0.000000 -0.000000 -0.000000 
-13.482836 71.483673 40.657089 161.902258 48.562478 -160.786587 23.201466 -8.431520 -6.678655 4.918009 -1.816177 -2.875453 4.959876 -1.702838 -2.832631 1.000402 5.944386 -2.867038 -39.831553 42.426410 9.118238 0.000000 0.000000 0.000000 3.797744 -15.940934 -8.820037 -14.612435 37.424690 -60.662428 -0.000269 -100.847197 -0.000308 -132.741038 3.908136 -2.657389 30.522288 -19.400577 25.687052 -27.513204 19.080606 -8.263444 0.934340 -15.972286 15.282159 0.000000 0.000001 -0.000001 8.499031 9.076039 -75.230121 2.844317 5.021686 -59.033345 1.025000 3.312120 -34.383500 0.000001 -0.000002 -0.000001 5.444145 8.473411 -67.735806 3.829860 5.492003 -69.758812 0.976788 3.240647 -33.539914 0.000001 -0.000000 0.000007 1.392707 6.378761 -56.394314 3.162994 5.198928 -62.609878 1.181617 3.529714 -37.007710 0.000002 0.000002 0.000001 -2.673510 2.262173 -46.517475 3.330592 5.282048 -64.444529 0.587124 2.558163 -25.848013 0.000001 0.000001 0.000001 0.432830 26.992694 9.304827 1.531795 34.216174 25.673880 -0.000023 109.904144 0.000052 -17.246117 -18.263741 18.136145 61.632205 28.897772 -13.280804 0.330322 -35.814807 7.397278 -15.909643 -47.311392 -52.518725 -0.000001 0.000001 0.000002 -0.575501 -0.947576 17.139361 0.321395 -1.701662 21.388396 0.689182 -2.440032 31.540068 -0.000003 -0.000005 -0.000002 0.670085 -5.101771 53.857732 5.248141 -4.619593 97.298073 1.778670 -3.662610 51.793249 0.000002 0.000000 -0.000004 7.412609 -8.470662 67.075470 3.825506 -4.582458 79.701819 2.852041 -4.293808 67.171967 0.000001 0.000002 -0.000001 7.484578 -8.453003 67.591791 1.968033 -3.803741 54.700933 3.471984 -4.504153 75.241302 -0.000001 0.000001 0.000007 -63.199208 15.487679 29.005822 58.970330 -5.617442 -2.673872 2.965415 20.510698 -6.476745 -8.198840 -0.000006 -0.000000 -0.000000 -0.000000 -0.000000 -51.779702 -17.716665 -20.693445 71.452344 -4.283793 -7.308409 -35.306901 -6.703682 8.799829 -1.295548 0.000052 0.000007 0.000000 0.000000 0.000000 
-14.949299 71.116760 40.301853 162.251881 44.438440 -161.488567 22.427951 -8.434685 -6.994102 4.747692 -1.813722 -2.941697 4.789762 -1.702150 -2.900321 1.099044 5.363139 -2.220333 -39.758705 40.244673 9.282396 0.000001 0.000000 -0.000001 3.782818 -16.160622 -8.707200 -14.411672 37.026189 -60.808457 0.000056 -101.048817 0.000033 -132.707447 3.428033 -2.371512 30.427086 -19.452497 25.437020 -27.513209 19.080608 -8.263440 0.934341 -15.972285 15.282161 -0.000000 -0.000001 -0.000003 8.519198 9.062996 -75.473105 2.844310 5.021714 -59.033284 1.025948 3.313472 -34.399814 -0.000005 -0.000000 -0.000000 5.462037 8.472170 -67.976474 3.829323 5.491809 -69.753232 0.976886 3.240775 -33.541447 -0.000000 0.000001 0.000005 1.409371 6.397340 -56.631223 3.163138 5.199024 -62.611422 1.181622 3.529714 -37.007703 -0.000000 -0.000001 0.000008 -2.673896 2.297283 -46.750217 3.330212 5.281870 -64.440540 0.586741 2.557378 -25.839348 -0.000000 -0.000000 0.000001 0.423936 26.528590 9.526819 1.356269 34.014212 25.554975 -0.000084 110.134116 0.000111 -17.562932 -18.588097 18.433687 61.632205 28.897786 -13.280804 0.330322 -35.814811 7.397277 -15.909650 -47.311385 -52.518725 -0.000000 -0.000004 -0.000001 -0.575503 -0.947572 17.139363 0.321392 -1.701663 21.388391 0.689172 -2.440031 31.540065 -0.000001 0.000002 -0.000003 0.670081 -5.101772 53.857729 5.248137 -4.619594 97.298066 1.778670 -3.662613 51.793246 0.000000 0.000003 -0.000003 7.412606 -8.470660 67.075463 3.825504 -4.582461 79.701819 2.852042 -4.293809 67.171967 0.000002 -0.000001 -0.000000 7.484576 -8.453001 67.591791 1.968034 -3.803738 54.700939 3.471984 -4.504155 75.241302 -0.000000 0.000001 0.000011 -62.378868 14.820013 27.794630 60.248054 -3.163163 -3.185228 0.214084 20.390673 -5.745942 -9.008204 -0.000012 0.000005 0.000000 0.000000 0.000000 -53.770019 -19.224396 -24.338119 72.195393 -3.001377 -7.122622 -35.431309 -8.111064 9.113457 -1.276359 -0.000013 -0.000003 -0.000000 -0.000000 0.000000 
-16.150423 71.027328 39.878548 163.041260 39.994538 -163.154272 22.349006 -9.311868 -6.289121 4.695966 -2.091401 -2.772516 4.743669 -1.978559 -2.721667 1.204256 4.806957 -1.604010 -39.798143 38.511223 9.377245 0.000000 0.000000 -0.000001 3.793802 -16.001450 -8.798784 -14.263166 36.292746 -60.965456 -0.000492 -100.383031 -0.000482 -133.035296 3.274444 -2.950091 30.664233 -19.590022 26.140247 -27.513209 19.080610 -8.263445 0.934339 -15.972283 15.282159 -0.000000 0.000001 0.000001 8.481409 9.095629 -74.908911 2.845923 5.022666 -59.051732 1.018377 3.302416 -34.268596 0.000000 0.000000 -0.000002 5.434890 8.480852 -67.418543 3.827984 5.491340 -69.739264 0.974589 3.237339 -33.501026 0.000002 -0.000002 -0.000002 1.371049 6.354355 -56.085094 3.163283 5.199092 -62.613116 1.181618 3.529713 -37.007703 0.000000 -0.000000 -0.000001 -2.672789 2.215383 -46.207893 3.333984 5.283687 -64.481480 0.589823 2.563741 -25.908458 -0.000002 0.000001 -0.000001 0.535503 26.144962 9.197766 1.140603 34.490738 25.566515 -0.000070 109.742405 0.000086 -17.579537 -18.717541 18.758952 61.632205 28.897776 -13.280814 0.330322 -35.814811 7.397278 -15.909652 -47.311392 -52.518728 -0.000001 -0.000002 0.000002 -0.575498 -0.947570 17.139359 0.321393 -1.701660 21.388391 0.689178 -2.440032 31.540068 -0.000001 -0.000001 -0.000001 0.670083 -5.101772 53.857732 5.248136 -4.619594 97.298066 1.778668 -3.662610 51.793249 -0.000001 -0.000000 -0.000006 7.412610 -8.470659 67.075463 3.825501 -4.582457 79.701819 2.852044 -4.293804 67.171967 0.000001 0.000000 -0.000005 7.484575 -8.453001 67.591791 1.968038 -3.803734 54.700936 3.471987 -4.504150 75.241309 0.000002 -0.000000 0.000006 -61.918615 14.830202 25.263722 60.653432 -1.559683 -3.476786 -4.115031 20.090716 -3.822631 -8.189698 -0.000001 -0.000005 0.000000 0.000000 0.000000 -54.365027 -21.859139 -27.552385 72.137760 -1.460782 -7.018423 -35.847749 -9.936799 9.344715 -1.099039 0.000007 -0.000005 0.000000 0.000000 0.000000 
